HIERARCHY
ROOT Hips
{
    OFFSET 0.0 0.0 0.0
    CHANNELS 6 Xposition Yposition Zposition Zrotation Xrotation Yrotation
    JOINT LeftHipJoint
    {
        OFFSET 0.1 0.0 0.0
        CHANNELS 3 Zrotation Xrotation Yrotation
        JOINT LeftUpLeg
        {
            OFFSET 0.12778419256210327 0.0 0.0
            CHANNELS 3 Zrotation Xrotation Yrotation
            JOINT LeftLeg
            {
                OFFSET 0.0 0.0 -0.3963471055030823
                CHANNELS 3 Zrotation Xrotation Yrotation
                JOINT LeftFoot
                {
                    OFFSET 0.0 0.0 -0.4405164122581482
                    CHANNELS 3 Zrotation Xrotation Yrotation
                    End Site
                    {
                        OFFSET 0.0 -0.1 0.0
                    }
                }
            }
        }
    }
    JOINT LowerBack
    {
        OFFSET 0.0 0.0 0.1
        CHANNELS 3 Zrotation Xrotation Yrotation
        JOINT Spine
        {
            OFFSET 0.0 0.0 0.2307175248861313
            CHANNELS 3 Zrotation Xrotation Yrotation
            JOINT Spine1
            {
                OFFSET 0.0 0.0 0.27248820662498474
                CHANNELS 3 Zrotation Xrotation Yrotation
                JOINT LeftShoulder
                {
                    OFFSET 0.1 0.0 0.0
                    CHANNELS 3 Zrotation Xrotation Yrotation
                    JOINT LeftArm
                    {
                        OFFSET 0.16504046320915222 0.0 0.0
                        CHANNELS 3 Zrotation Xrotation Yrotation
                        JOINT LeftForeArm
                        {
                            OFFSET 0.24122363328933716 0.0 0.0
                            CHANNELS 3 Zrotation Xrotation Yrotation
                            JOINT LeftHand
                            {
                                OFFSET 0.2034168690443039 0.0 0.0
                                CHANNELS 3 Zrotation Xrotation Yrotation
                                End Site
                                {
                                    OFFSET 0.1 0.0 0.0
                                }
                            }
                        }
                    }
                }
                JOINT Neck
                {
                    OFFSET 0.0 0.0 0.1
                    CHANNELS 3 Zrotation Xrotation Yrotation
                    JOINT Neck1
                    {
                        OFFSET 0.0 0.0 0.1185329407453537
                        CHANNELS 3 Zrotation Xrotation Yrotation
                        End Site
                        {
                            OFFSET 0.0 0.0 0.07166734337806702
                        }
                    }
                }
                JOINT RightShoulder
                {
                    OFFSET -0.1 0.0 0.0
                    CHANNELS 3 Zrotation Xrotation Yrotation
                    JOINT RightArm
                    {
                        OFFSET -0.16504046320915222 0.0 0.0
                        CHANNELS 3 Zrotation Xrotation Yrotation
                        JOINT RightForeArm
                        {
                            OFFSET -0.24122363328933716 0.0 0.0
                            CHANNELS 3 Zrotation Xrotation Yrotation
                            JOINT RightHand
                            {
                                OFFSET -0.2034168690443039 0.0 0.0
                                CHANNELS 3 Zrotation Xrotation Yrotation
                                End Site
                                {
                                    OFFSET -0.1 0.0 0.0
                                }
                            }
                        }
                    }
                }
            }
        }
    }
    JOINT RightHipJoint
    {
        OFFSET -0.1 0.0 0.0
        CHANNELS 3 Zrotation Xrotation Yrotation
        JOINT RightUpLeg
        {
            OFFSET -0.12778419256210327 0.0 0.0
            CHANNELS 3 Zrotation Xrotation Yrotation
            JOINT RightLeg
            {
                OFFSET 0.0 0.0 -0.3963471055030823
                CHANNELS 3 Zrotation Xrotation Yrotation
                JOINT RightFoot
                {
                    OFFSET 0.0 0.0 -0.4405164122581482
                    CHANNELS 3 Zrotation Xrotation Yrotation
                    End Site
                    {
                        OFFSET 0.0 -0.1 0.0
                    }
                }
            }
        }
    }
}
MOTION
Frames: 6
Frame Time: 0.03333333333333333
-0.0 -0.0 0.0 3.4533707254543656e-07 19.210118520950626 2.4018085674194025 -4.969616689786745e-17 2.694034605743505e-35 -6.212020862233431e-17 1.5681852289672196 -31.68472979366826 12.87252181674567 5.655653856977189 27.842293284511133 -4.687309324848583 -3.9756933518293955e-16 2.4848083448933725e-17 -4.47265502080807e-16 -4.969616689786745e-17 2.694034605743505e-35 -6.212020862233431e-17 0.47131048867511016 11.09570444719388 -18.831900661502818 26.988271797863675 -1.4638139510512283e-06 1.6773313565651157e-06 0.0 0.0 2.3854160110976368e-15 -4.516870604196748 -63.84358425323426 19.768155398458656 -60.356932275779805 1.1857212923367607e-06 3.950953124540761e-06 2.2069531490250793e-32 -1.5902773407317588e-15 1.5902773407317588e-15 0.0 0.0 2.3854160110976368e-15 -4.031857561078738 16.474195403609745 5.159552764881398 0.0 0.0 2.3854160110976368e-15 24.93333187632427 -25.69489864401206 37.674713138413914 51.64239218877628 -1.0545865173156864e-07 2.489842621500777e-07 6.3611093629270335e-15 0.0 0.0 -4.969616689786745e-17 2.694034605743505e-35 -6.212020862233431e-17 -3.8253824784299018 -26.96015836734756 2.7036093936596752 4.9053843042950405 25.177954657691497 -6.207920292117251 -4.9696166897867443e-17 3.1805546814635164e-15 9.318031293350146e-17
-0.0 -0.0 0.0 -8.912755786932185e-07 19.896547077415704 2.4937148128053406 0.0 0.0 -5.342337941520751e-16 1.539058382714879 -34.479276151021004 12.891787884122115 6.410373693487629 30.67255766768346 -5.51844660755346 3.9756933518293955e-16 -2.4848083448933722e-17 2.484808344893372e-16 0.0 0.0 -5.342337941520751e-16 0.5111707073227264 11.576950328433453 -18.813915017167698 27.458979554278244 -1.8143389911410687e-06 1.050592259291619e-08 0.0 0.0 -2.3854160110976376e-15 -2.09112663343004 -63.74262002521889 21.176657188438732 -61.31077411884973 -2.261212237212223e-06 -1.0979039692984332e-06 0.0 -1.5902773407317582e-15 0.0 0.0 0.0 -2.3854160110976376e-15 -4.53013372870036 17.10381151012061 4.845707961893791 0.0 0.0 -2.3854160110976376e-15 25.34963748176189 -25.886034180277086 39.17186639166789 51.87615296176145 -1.4182921256371246e-06 -2.4330585555663503e-07 -6.3611093629270335e-15 0.0 0.0 0.0 0.0 -5.342337941520751e-16 -4.006744230990656 -28.46240161950634 2.509496544710377 5.129072073074743 26.204403467679295 -6.603647143525551 -4.969616689786744e-17 3.180554681463516e-15 5.590818776010087e-17
-0.0 -0.0 0.0 -1.951179972573229e-06 20.531585775410946 2.5868696381217133 0.0 0.0 -2.3605679276487037e-16 1.5003731492307126 -37.03121707628379 12.805235802048221 7.068987712505522 33.22762432491952 -6.166672907059285 -3.975693351829397e-16 8.620910738379216e-34 -2.484808344893373e-16 0.0 0.0 -2.3605679276487037e-16 0.5515804761079165 12.028414513588823 -18.78778675590275 27.83435032707156 2.5465577292773505e-06 1.099551400134173e-06 -3.1805546814635176e-15 -2.2069531490250793e-32 7.951386703658794e-16 0.1920906807636027 -63.538682234149796 22.544542075325584 -62.10478097320723 -2.947400287359007e-06 -4.1429685795094255e-06 0.0 0.0 -1.5902773407317582e-15 -3.1805546814635176e-15 -2.2069531490250793e-32 7.951386703658794e-16 -4.846383378363905 17.762389092592624 4.516145375206561 -3.1805546814635176e-15 -2.2069531490250793e-32 7.951386703658794e-16 25.5097806505416 -26.10046802971326 40.36802679224661 52.104848402749745 -2.383040266206727e-06 3.731161654065142e-07 0.0 0.0 -1.5902773407317584e-15 0.0 0.0 -2.3605679276487037e-16 -4.185880719857319 -29.82454539590557 2.291651352379786 5.320525055360209 27.09914384811566 -6.945803191864092 -1.7241821476758432e-33 3.1805546814635168e-15 6.212020862233431e-17
-0.0 -0.0 0.0 2.6152483735653544e-07 21.105488738179503 2.67587486092665 0.0 0.0 -3.727212517340059e-17 1.4288846701565752 -39.288955310266736 12.617820452936858 7.622037694016938 35.44902208063727 -6.628341332327769 8.620910738379216e-35 -2.4848083448933725e-17 3.975693351829396e-16 0.0 0.0 -3.727212517340059e-17 0.5903961496770715 12.433240416529882 -18.759796646505908 28.113070992265833 1.0412274616341692e-06 7.06852945287654e-07 6.3611093629270335e-15 3.1805546814635164e-15 -4.770832022195275e-15 2.2204350969513595 -63.25982826316707 23.801146923702046 -62.74102341002719 -3.312838515471402e-06 -4.395711517223461e-06 -6.3611093629270335e-15 0.0 0.0 6.3611093629270335e-15 3.1805546814635164e-15 -4.770832022195275e-15 -4.98402869106994 18.449972930001657 4.17809649979136 6.3611093629270335e-15 3.1805546814635164e-15 -4.770832022195275e-15 25.46536994504488 -26.337695015382913 41.270720797223404 52.32355478316519 1.4683646198020852e-06 -2.154844804732106e-06 0.0 0.0 1.5902773407317584e-15 0.0 0.0 -3.727212517340059e-17 -4.337545034826003 -31.028782344000078 2.0737516821114395 5.4611817508605345 27.85152857537487 -7.235624064683068 -4.969616689786746e-17 -5.38806921148701e-36 1.2424041724466865e-17
-0.0 -0.0 0.0 2.946872553396632e-06 21.610674666301406 2.740250516230364 0.0 0.0 -3.2302508483613835e-16 1.4097865986262634 -41.247675226755455 12.422886046171367 8.06224239999736 37.36180291066914 -6.953382043666188 3.975693351829396e-16 3.155706598014583e-15 3.975693351829396e-16 0.0 0.0 -3.2302508483613835e-16 0.6231472502155919 12.801796177131617 -18.722911635085932 28.314860739199414 -3.2646386944998227e-06 2.3426062268069033e-07 3.1805546814635168e-15 -4.4139062980501586e-32 -1.5902773407317584e-15 3.993318142087657 -62.927632321791314 24.955294053016825 -63.24079846806941 2.6109047040681866e-06 1.3031387340798258e-06 0.0 0.0 0.0 3.1805546814635168e-15 -4.4139062980501586e-32 -1.5902773407317584e-15 -4.972417541221786 19.188064785400424 3.824615801830837 3.1805546814635168e-15 -4.4139062980501586e-32 -1.5902773407317584e-15 25.24580537081001 -26.58807439778192 41.91045801764933 52.51381952794425 5.328140645386478e-08 -4.664950838577053e-07 6.3611093629270335e-15 -7.951386703658792e-16 4.4139062980501586e-32 0.0 0.0 -3.2302508483613835e-16 -4.502231933086781 -32.08127492775228 1.8602221554485707 5.568833927905215 28.482973130271677 -7.464423408574087 0.0 0.0 0.0
-0.0 -0.0 0.0 -3.9182829963041404e-08 22.054718540727688 2.7851500039158945 0.0 0.0 7.454425034680117e-17 1.4003152909345145 -42.91385557461905 12.206798471454299 8.393052301957562 38.9587804515593 -7.142698804468354 0.0 0.0 -5.466578358765419e-16 0.0 0.0 7.454425034680117e-17 0.6494614734770466 13.115836945109978 -18.685646269452853 28.448572551857577 7.419237429074387e-08 -5.446280943667619e-07 0.0 0.0 0.0 5.4467948194881854 -62.570090076562465 25.967289798900094 -63.60300851524422 1.276184937554417e-07 3.6490462326978516e-07 0.0 3.1805546814635168e-15 0.0 0.0 0.0 0.0 -4.823774961886274 19.98255235646784 3.458445014244562 0.0 0.0 0.0 24.901966284361176 -26.834303390986417 42.307173266212494 52.66516649856448 3.5403051959591487e-07 -1.3439471471429514e-06 6.3611093629270335e-15 0.0 0.0 0.0 0.0 7.454425034680117e-17 -4.64471260886199 -32.98453573523081 1.669262968957626 5.637318781669452 28.985572222141283 -7.649342279559514 0.0 0.0 4.9696166897867443e-17
